<mxfile host="65bd71144e">
    <diagram id="oy0-SmHou1nQkL_5ry_Y" name="Page-1">
        <mxGraphModel dx="1220" dy="1470" grid="1" gridSize="10" guides="1" tooltips="1" connect="1" arrows="1" fold="1" page="1" pageScale="1" pageWidth="850" pageHeight="1100" math="0" shadow="0">
            <root>
                <mxCell id="0"/>
                <mxCell id="1" parent="0"/>
                <mxCell id="2" value="Stack&lt;br&gt;(Descending)" style="rounded=0;whiteSpace=wrap;html=1;gradientColor=#FFFFFF;verticalAlign=middle;fontColor=#000000;strokeColor=none;fontSize=19;gradientDirection=west;align=right;fillColor=#33FF33;" vertex="1" parent="1">
                    <mxGeometry x="410" y="30" width="200" height="80" as="geometry"/>
                </mxCell>
                <mxCell id="3" value="Heap" style="rounded=0;whiteSpace=wrap;html=1;gradientColor=#ffffff;gradientDirection=east;fillColor=#3399FF;verticalAlign=middle;fontColor=#000000;strokeColor=none;fontSize=19;align=left;" vertex="1" parent="1">
                    <mxGeometry x="210" y="30" width="200" height="80" as="geometry"/>
                </mxCell>
                <mxCell id="4" value="Data" style="rounded=0;whiteSpace=wrap;html=1;fillColor=#6a00ff;strokeColor=#3700CC;fontColor=#ffffff;fontSize=19;" vertex="1" parent="1">
                    <mxGeometry x="140" y="30" width="70" height="80" as="geometry"/>
                </mxCell>
                <mxCell id="5" value="Code" style="rounded=0;whiteSpace=wrap;html=1;fillColor=#a20025;strokeColor=#6F0000;fontColor=#ffffff;fontSize=19;" vertex="1" parent="1">
                    <mxGeometry x="20" y="30" width="120" height="80" as="geometry"/>
                </mxCell>
                <mxCell id="7" value="" style="endArrow=open;html=1;fontSize=19;fontColor=#000000;endFill=0;endSize=19;strokeColor=#000000;" edge="1" parent="1">
                    <mxGeometry width="50" height="50" relative="1" as="geometry">
                        <mxPoint x="520" y="60" as="sourcePoint"/>
                        <mxPoint x="470" y="60" as="targetPoint"/>
                    </mxGeometry>
                </mxCell>
                <mxCell id="8" value="" style="endArrow=open;html=1;fontSize=19;fontColor=#000000;endFill=0;endSize=19;strokeColor=#000000;" edge="1" parent="1">
                    <mxGeometry width="50" height="50" relative="1" as="geometry">
                        <mxPoint x="300" y="60" as="sourcePoint"/>
                        <mxPoint x="350" y="60" as="targetPoint"/>
                    </mxGeometry>
                </mxCell>
                <mxCell id="9" value="Max" style="text;html=1;strokeColor=none;fillColor=none;align=right;verticalAlign=middle;whiteSpace=wrap;rounded=0;fontSize=19;fontColor=#000000;" vertex="1" parent="1">
                    <mxGeometry x="570" y="10" width="40" height="20" as="geometry"/>
                </mxCell>
                <mxCell id="11" value="0x0" style="text;html=1;strokeColor=none;fillColor=none;align=right;verticalAlign=middle;whiteSpace=wrap;rounded=0;fontSize=19;fontColor=#000000;" vertex="1" parent="1">
                    <mxGeometry x="20" y="10" width="40" height="20" as="geometry"/>
                </mxCell>
            </root>
        </mxGraphModel>
    </diagram>
</mxfile>